<?xml version="1.0" encoding="utf-8"?>
<!-- Generator: Adobe Illustrator 23.0.4, SVG Export Plug-In . SVG Version: 6.00 Build 0)  -->
<svg version="1.1" id="Layer_1" xmlns="http://www.w3.org/2000/svg" xmlns:xlink="http://www.w3.org/1999/xlink" x="0px" y="0px"
	 viewBox="0 0 118 18" style="enable-background:new 0 0 118 18;" xml:space="preserve">
<style type="text/css">
	.st0{fill-rule:evenodd;clip-rule:evenodd;fill:url(#Fill-1_1_);}
	.st1{fill-rule:evenodd;clip-rule:evenodd;fill:url(#Fill-2_1_);}
	.st2{fill-rule:evenodd;clip-rule:evenodd;fill:url(#Fill-3_1_);}
	.st3{fill-rule:evenodd;clip-rule:evenodd;fill:url(#Fill-6_1_);}
	.st4{fill:url(#Fill-4_1_);}
	.st5{fill-rule:evenodd;clip-rule:evenodd;fill:url(#Fill-8_1_);}
</style>
<title>794F4014-C42D-4FCF-8F50-E6F128F686AF</title>
<desc>Created with sketchtool.</desc>
<g id="Page-1">
	<g id="Desktop---Landing-Page-Copy" transform="translate(-150.000000, -24.000000)">
		<g id="Header-Block">
			<g id="Logo_white_trans" transform="translate(150.000000, 24.000000)">
				<linearGradient id="Fill-1_1_" gradientUnits="userSpaceOnUse" x1="0" y1="9" x2="15" y2="9">
					<stop  offset="0" style="stop-color:#FFFFFF"/>
					<stop  offset="0" style="stop-color:#F6F6F6"/>
					<stop  offset="0" style="stop-color:#C8C8C8"/>
					<stop  offset="0" style="stop-color:#9D9D9D"/>
					<stop  offset="0" style="stop-color:#777777"/>
					<stop  offset="0" style="stop-color:#575757"/>
					<stop  offset="0" style="stop-color:#3B3B3B"/>
					<stop  offset="0" style="stop-color:#252525"/>
					<stop  offset="0" style="stop-color:#141414"/>
					<stop  offset="0" style="stop-color:#090909"/>
					<stop  offset="0" style="stop-color:#020202"/>
					<stop  offset="0" style="stop-color:#000000"/>
				</linearGradient>
				<polygon id="Fill-1" class="st0" points="11.4,0 11.4,7.1 3.5,7.1 3.5,0 0,0 0,18 3.5,18 3.5,10.4 11.4,10.4 11.4,18 15,18 
					15,0 				"/>
				<linearGradient id="Fill-2_1_" gradientUnits="userSpaceOnUse" x1="26" y1="9" x2="38" y2="9">
					<stop  offset="0" style="stop-color:#FFFFFF"/>
					<stop  offset="0" style="stop-color:#F6F6F6"/>
					<stop  offset="0" style="stop-color:#C8C8C8"/>
					<stop  offset="0" style="stop-color:#9D9D9D"/>
					<stop  offset="0" style="stop-color:#777777"/>
					<stop  offset="0" style="stop-color:#575757"/>
					<stop  offset="0" style="stop-color:#3B3B3B"/>
					<stop  offset="0" style="stop-color:#252525"/>
					<stop  offset="0" style="stop-color:#141414"/>
					<stop  offset="0" style="stop-color:#090909"/>
					<stop  offset="0" style="stop-color:#020202"/>
					<stop  offset="0" style="stop-color:#000000"/>
				</linearGradient>
				<polygon id="Fill-2" class="st1" points="26,0 26,18 38,18 38,14.7 29.6,14.7 29.6,10.5 37.8,10.5 37.8,7.2 29.6,7.2 29.6,3.3 
					38,3.3 38,0 				"/>
				<linearGradient id="Fill-3_1_" gradientUnits="userSpaceOnUse" x1="49" y1="9" x2="59" y2="9">
					<stop  offset="0" style="stop-color:#FFFFFF"/>
					<stop  offset="0" style="stop-color:#F6F6F6"/>
					<stop  offset="0" style="stop-color:#C8C8C8"/>
					<stop  offset="0" style="stop-color:#9D9D9D"/>
					<stop  offset="0" style="stop-color:#777777"/>
					<stop  offset="0" style="stop-color:#575757"/>
					<stop  offset="0" style="stop-color:#3B3B3B"/>
					<stop  offset="0" style="stop-color:#252525"/>
					<stop  offset="0" style="stop-color:#141414"/>
					<stop  offset="0" style="stop-color:#090909"/>
					<stop  offset="0" style="stop-color:#020202"/>
					<stop  offset="0" style="stop-color:#000000"/>
				</linearGradient>
				<polygon id="Fill-3" class="st2" points="49,0 49,18 59,18 59,14.6 52.3,14.6 52.3,0 				"/>
				<linearGradient id="Fill-6_1_" gradientUnits="userSpaceOnUse" x1="90" y1="9" x2="93" y2="9">
					<stop  offset="0" style="stop-color:#FFFFFF"/>
					<stop  offset="0" style="stop-color:#F6F6F6"/>
					<stop  offset="0" style="stop-color:#C8C8C8"/>
					<stop  offset="0" style="stop-color:#9D9D9D"/>
					<stop  offset="0" style="stop-color:#777777"/>
					<stop  offset="0" style="stop-color:#575757"/>
					<stop  offset="0" style="stop-color:#3B3B3B"/>
					<stop  offset="0" style="stop-color:#252525"/>
					<stop  offset="0" style="stop-color:#141414"/>
					<stop  offset="0" style="stop-color:#090909"/>
					<stop  offset="0" style="stop-color:#020202"/>
					<stop  offset="0" style="stop-color:#000000"/>
				</linearGradient>
				<polygon id="Fill-6" class="st3" points="90,18 93,18 93,0 90,0 				"/>
				<linearGradient id="Fill-4_1_" gradientUnits="userSpaceOnUse" x1="67" y1="9" x2="81" y2="9">
					<stop  offset="0" style="stop-color:#FFFFFF"/>
					<stop  offset="0" style="stop-color:#F6F6F6"/>
					<stop  offset="0" style="stop-color:#C8C8C8"/>
					<stop  offset="0" style="stop-color:#9D9D9D"/>
					<stop  offset="0" style="stop-color:#777777"/>
					<stop  offset="0" style="stop-color:#575757"/>
					<stop  offset="0" style="stop-color:#3B3B3B"/>
					<stop  offset="0" style="stop-color:#252525"/>
					<stop  offset="0" style="stop-color:#141414"/>
					<stop  offset="0" style="stop-color:#090909"/>
					<stop  offset="0" style="stop-color:#020202"/>
					<stop  offset="0" style="stop-color:#000000"/>
				</linearGradient>
				<path id="Fill-4" class="st4" d="M75.2,14.7c1.4,0,2.2-0.8,2.2-2.1c0-1.1-0.8-2.1-2.2-2.1h-4.6v4.2H75.2z M75.1,7.2
					c1.2,0,2-0.8,2-2c0-1.1-0.8-2-2-2h-4.5v4H75.1z M67,0h8.8c3.2,0,4.8,2.2,4.8,4.6c0,2.3-1.3,3.8-2.9,4.1C79.6,9,81,10.9,81,13.1
					c0,2.7-1.7,4.9-4.9,4.9H67V0z"/>
				<linearGradient id="Fill-8_1_" gradientUnits="userSpaceOnUse" x1="104" y1="9" x2="118" y2="9">
					<stop  offset="0" style="stop-color:#FFFFFF"/>
					<stop  offset="0" style="stop-color:#F6F6F6"/>
					<stop  offset="0" style="stop-color:#C8C8C8"/>
					<stop  offset="0" style="stop-color:#9D9D9D"/>
					<stop  offset="0" style="stop-color:#777777"/>
					<stop  offset="0" style="stop-color:#575757"/>
					<stop  offset="0" style="stop-color:#3B3B3B"/>
					<stop  offset="0" style="stop-color:#252525"/>
					<stop  offset="0" style="stop-color:#141414"/>
					<stop  offset="0" style="stop-color:#090909"/>
					<stop  offset="0" style="stop-color:#020202"/>
					<stop  offset="0" style="stop-color:#000000"/>
				</linearGradient>
				<polygon id="Fill-8" class="st5" points="104,14.9 112.7,3.4 104,3.4 104,0 117.8,0 117.8,3.1 109.1,14.6 118,14.6 118,18 
					104,18 				"/>
			</g>
		</g>
	</g>
</g>
</svg>
